/* XPM */
static char *_31ef4eacaa0445f80f8a291f8871054pWDa5M2ctQIIrTDs[] = {
/* columns rows colors chars-per-pixel */
"67 64 253 2 ",
"   c #030101",
".  c #0A0301",
"X  c #050A03",
"o  c #0B0A03",
"O  c #04030A",
"+  c #0B040B",
"@  c #050B0B",
"#  c #0C0B0B",
"$  c #120502",
"%  c #130B03",
"&  c #1A0C00",
"*  c #130C0B",
"=  c #190E0A",
"-  c #130508",
";  c #0C1102",
":  c #0D130B",
">  c #061108",
",  c #131103",
"<  c #1B1403",
"1  c #13130C",
"2  c #1B140B",
"3  c #1B1B0D",
"4  c #181A09",
"5  c #050311",
"6  c #0D0C11",
"7  c #090915",
"8  c #120D13",
"9  c #120D1A",
"0  c #170B16",
"q  c #0D1312",
"w  c #0C1518",
"e  c #141313",
"r  c #1A1413",
"t  c #141A13",
"y  c #1B1A14",
"u  c #15141A",
"i  c #1B141B",
"p  c #1C1B1B",
"a  c #141B1C",
"s  c #240C02",
"d  c #231504",
"f  c #231B02",
"g  c #22150D",
"h  c #231B0C",
"j  c #2A1C0B",
"k  c #2B1A02",
"l  c #341E0A",
"z  c #221612",
"x  c #241B14",
"c  c #2A1D14",
"v  c #221D1C",
"b  c #271A1B",
"n  c #321F13",
"m  c #1C2113",
"M  c #2B2304",
"N  c #28240B",
"B  c #362608",
"V  c #3B360D",
"C  c #232215",
"Z  c #2A2214",
"A  c #24231B",
"S  c #2B241B",
"D  c #2C2A1A",
"F  c #292916",
"G  c #322B14",
"H  c #322C1B",
"J  c #362716",
"K  c #3A341C",
"L  c #383517",
"P  c #1E1D22",
"I  c #1A1323",
"U  c #241B26",
"Y  c #232223",
"T  c #2D2B22",
"R  c #282729",
"E  c #342C23",
"W  c #392E23",
"Q  c #342A26",
"!  c #2E3124",
"~  c #343224",
"^  c #3B3323",
"/  c #3A332B",
"(  c #3C3C2C",
")  c #3A3825",
"_  c #352D37",
"`  c #3A3A32",
"'  c #292631",
"]  c #1B2023",
"[  c #422D19",
"{  c #45381A",
"}  c #4B3810",
"|  c #433C23",
" . c #433C2B",
".. c #493B25",
"X. c #433C32",
"o. c #443C38",
"O. c #603E11",
"+. c #3B4115",
"@. c #4B471B",
"#. c #574519",
"$. c #4A440B",
"%. c #654B1B",
"&. c #454225",
"*. c #4B4728",
"=. c #524C2E",
"-. c #56472A",
";. c #58562C",
":. c #4B4333",
">. c #4D4A33",
",. c #494639",
"<. c #534C34",
"1. c #564A39",
"2. c #565135",
"3. c #5B5433",
"4. c #55513C",
"5. c #5D5839",
"6. c #4D5138",
"7. c #644D24",
"8. c #66582A",
"9. c #644D33",
"0. c #645A39",
"q. c #765C37",
"w. c #795A2E",
"e. c #64633C",
"r. c #6B663B",
"t. c #766737",
"y. c #3D3E40",
"u. c #4A4844",
"i. c #524C42",
"p. c #5A4D41",
"a. c #5B5344",
"s. c #5C5B44",
"d. c #5A5749",
"f. c #595654",
"g. c #4C5042",
"h. c #645C44",
"j. c #635C4B",
"k. c #675747",
"l. c #655D52",
"z. c #695D57",
"x. c #715E4D",
"c. c #5F604F",
"v. c #656244",
"b. c #6A6748",
"n. c #736B4B",
"m. c #766847",
"M. c #797649",
"N. c #6C6453",
"B. c #6C655C",
"V. c #696858",
"C. c #736C53",
"Z. c #766A59",
"A. c #7C7A5D",
"S. c #797457",
"D. c #756C61",
"F. c #7C7463",
"G. c #797767",
"H. c #7A7973",
"J. c #6A6C64",
"K. c #675D66",
"L. c #88713D",
"P. c #866C46",
"I. c #887749",
"U. c #847C5C",
"Y. c #857656",
"T. c #967D55",
"R. c #8D724E",
"E. c #827C6D",
"W. c #877A67",
"Q. c #857E72",
"!. c #917864",
"~. c #7D814F",
"^. c #878459",
"/. c #998A5A",
"(. c #8F874C",
"). c #A28959",
"_. c #8A8668",
"`. c #948967",
"'. c #98936A",
"]. c #8A8876",
"[. c #948C7A",
"{. c #998B7A",
"}. c #9B957B",
"|. c #9B9775",
" X c #A89365",
".X c #A29C7E",
"XX c #A49976",
"oX c #B19872",
"OX c #A5A37C",
"+X c #ABA77B",
"@X c #B4A679",
"#X c #C1A671",
"$X c #8B8883",
"%X c #958D83",
"&X c #999787",
"*X c #9D9D99",
"=X c #90908B",
"-X c #A39D83",
";X c #A5988A",
":X c #A29C93",
">X c #B19C81",
",X c #9CA093",
"<X c #A6A283",
"1X c #AAA48A",
"2X c #B5AA88",
"3X c #BAB68A",
"4X c #AEAB94",
"5X c #A9A596",
"6X c #B4AB98",
"7X c #BAB697",
"8X c #B3AEA6",
"9X c #B8B7A6",
"0X c #B3B1AF",
"qX c #9EA8A9",
"wX c #C6AD84",
"eX c #C4B98C",
"rX c #C4BA98",
"tX c #D2BC97",
"yX c #C5BBA8",
"uX c #C7BDB5",
"iX c #C8C599",
"pX c #D6C69A",
"aX c #D2CC94",
"sX c #E5C89A",
"dX c #EAD79C",
"fX c #C8C4A8",
"gX c #D6CCAA",
"hX c #D8D4A9",
"jX c #CDCAB3",
"kX c #CBC7BA",
"lX c #D5CAB9",
"zX c #D8D6B7",
"xX c #CCD0AF",
"cX c #E6D7A8",
"vX c #E5DAB9",
"bX c #E9CEA1",
"nX c #E8E3B8",
"mX c #F7EFBB",
"MX c #D1CDC1",
"NX c #DCDAC6",
"BX c #D6D8C9",
"VX c #E6DBC8",
"CX c #E7DED1",
"ZX c #F1D6C1",
"AX c #DDE2C6",
"SX c #E8E6C5",
"DX c #F9F6CE",
"FX c #EBE7D6",
"GX c #F4EDD8",
"HX c #FCF8D6",
"JX c #F5ECC4",
"KX c #FEFCE9",
"LX c #F4F1ED",
/* pixels */
"  6 Y u O   w Y O u u u 9   + + X > t ; :     p O O     O @ 5 O q     1 e . . . 1     4 y     X     X ; X   . o x     X 1 X     y   X ",
"O X       #     2   . % $ z  .=     X   . T S 1 X o m ` ! m 4 F   . X X y ( ` E < y D   o ( / W ( 4     F ! E ,.4 2 / /   D g.C a w   ",
". ,.H.B.~ S d.[.:.. C..X3.M 0.B o   B.G.2 d ^ j < G &.&.L *.e.A.J.  O J.].a.h.].W.z o.N.G.Z.H j.g.t   ( &XG.2.F.%Xl.Z z.Q.W.:.d.~.H.X ",
". B.fX4Xp. .[.FXj.4 yXKXXXk 0.}   = qXMX>.4 h..X:.o | 9XrX;.r.zXuX  : CXFXv.e.gXlX&  .yXGX%Xc %XqX,.o H.GX4XC.<XKX%X$ _.CXuX .N.FXkXX ",
"o H >.:.^ H >.s.` . z.Q.Z.h <....   u.B.W < .._._ . b %X&X:.<.1XH.O C *X,Xb.b.'.[.$ W F.:X;Xp.;XKXH.X ,.9X1XC.}.yXD.E E.W.;Xz.o.&X=X  ",
". . . . o % .   O O 7   * - S = O   +   . % + . O u 8 .   v ~ A @   ; y 4 H ( N r . S = b ,.S ,.J.u.X   ( X.D ^ x W z S = / c c ; D   ",
"  # t #     X 6   7 :       . .     w # + y +         q 8                   . . .   , + . .   .     X   .   . . . *     . . . .   X   ",
"O     O   6 O   > X   t t q # e w   @ 7     O   o     : t . X a : o . r A 1 + x p # # e a e e P _ q   X p i 8 i P   e p   q R   C     ",
". C e.;.$.8.0.< . . . , z . . . 7 . F @.V V ;.V H E < . . . . X 8   + $ X . . % y     o %   . o . . o o   . 1 X r o %   o . o     o   ",
"1 d.OX^.8.^.'.-.L h.0.=.| <.n.5.  . s.b.;.@.b.{ 2.@.{ 5.0.;.5.b.T   % 6.c.;.=.0.| L b.<.2.C.>.b.:.G o < >.4.>.c.K K >.=.5.2.2.:.6.H   ",
". ].GXhX_.+X7XW.L S.rXzX'.^.3XhX  : <XSX3Xr.|.iX7X=.e.hXgXr.t.aX,X4 F fXSX^.t.3XeX3.XXeXiX2Xr.3XKXA.X e.SXOX;.OXJX^.8.3XhX+Xr.M.zX].1 ",
"o H.NXfX|.4X1XZ.o  .<XnXOXn.+XiX  X =XAX3Xv.|.AX}.M *.hXxXr.~.hX%Xo 3 xXSX'.^.hXrXV 3.iXJX7XI.fXBXb.  b.HX7Xe.+XHXr.f |.hX7XI._.xX].4 ",
"  1 C 3 Z  ./ . O r ~ ` F ( s.N O   A C H L 2.( Y   A i.( K =.&.]   q ,.d.6.>.2.^ , .  .C.j.<.^ U R e A g.N.>.>.:.G . N ^ j.:. .F N   ",
"X o . o o $ o . 7   O .   . y . @       X . o .     8 +     o   5 O 7 #   + o .   x     . . e   O 9 u     # X   + * + . . . .     .   ",
"  o y e 8   . * + + O R i   X e X   : p Y   o 4 .     1 1   . y >     a e   # p + q # p p q P Y e     O p :   1 e     q ] O   6 2 1   ",
"X @     e I 8 r o D y 1 1 1 y 1     @   # X C y 3 4 , t 3 X   e m X X 4 1 o O . q     X X O   X X ;   X A :   t p @ q X p > e X v e   ",
". - ~ H . & S . .   2 h o , o % O   6.s.v.o < . + y . + + z c .   u 5 7 + o ;.V z z E . . / % o   + 6   o e   o . C Q X.{ ..B =...K . ",
"% F.FXzX5.*.}.jX+X_.4XSX1X^.rXfXr + 4XHXiXV F.7X}.) ,.kX:X  S NX*Xu   8X8Xf ;.gXgXN.S.1X4XS.<.7X9X`   V.kXV.4 G.yXk.j !.tX{.-.m.VX%X. ",
"  b.SXFX_.r.}.fX@X|.3XDX+X~.nXiX    4XDXfX|.SXSXzXzX7X;Xf.g ,.G.f.# , <X7Xr.U.2X7XS.^.OX<XU.0.2X&X(   s.zX].L 4XKXZ.$ !.ZX>X{ r.FX%X. ",
", F d.~.b.s.6.) b.v.b._.5.h.<Xb.. 2 C.C.b.~.1Xc.C.[.v.2 . 2 Q . I   . e.S.;.j.l.*.0.b.K { v.=.>.o 4 % , s.V.4.G.0XK.g x.;XF.^ b.8XH.X ",
"        >           + +   - + .     o   >   X o . $ . r * . 8 a I O   % % . . +   . o . . . . . r   + .   .     O @     + O   > . o   ",
"5 I R v : # e p 9 i U 0 U I   _ 9 6   @ R w # ' 8 i * $ . . + X 9 7 8 e = 0 0 O i 6   8 i O   u 8 O O p 8 e p T a a O p u P @ w 2 Z   ",
"O 8 b 2 r z 8 .   . . % + .   %   X .     @     e .   , N o 4 f X O   P U - . 2   +   O @       .   o .         :   . & . = .   < g   ",
"$ z $ . & J c & @.;.@.;.@.*.^.V X   m ! X ; F m . % G M.(.e.r.~.+.f , .   z c <   1     1 e e o . o o 4 4.s.( 5.{ { ..7.l -.0.*.9.>.. ",
". N.6XtX9.} {.Y.} /.iXnX@X;./.cX    H &.M % M f X.. 4.FXnX@./.mXqX  m fXvXq.O.sXkX. j & N & & f A D , D.GX7Xr.3XnX`.8.oXcX/.O.P.AX,X@ ",
". C.2XrXY.m.@XC.B 0.2XcX`.;.Y.'.X   D &.=.L &.N / $ a.fXxX^.+X3X,X; ) fXgXm.%.sX8X. g c ~ j N :.u.R . f.FXjX_.2XKXZ.M `.cX X..P.xX&XX ",
"4 H d B -.n.C.% , , Z.].G F v.C.  o T D ^ D >.,.*   ` &X4XC.b.=.!   F C.^.b.q./.f.# * + r C x A   :   t H.%X_._.&X1.C >.W.Z.k.p.V.d.  ",
"  # . . . . 2   C   X     # X   7       . . . .   + . .   X N       X ;         O       O #       a 7         X .   .     = = . o 1   ",
"7 7 O 8 z * 6   #   p # o p   #     t X 3 . . +   + # Y t   .   5   O I e @ u p     O @ e     o @     @ p .   3 e .   8 +         X   ",
"O O 8 b - . - +   o A e X . # _     t ; #   e _ Y @   p y # t ' 7 9 O       #   . + r   . 1 . o : : # @ 8 = . o 2 # + 0 9 + 7 P . @ O ",
"a   4 c n :. .. o   . * .   + . R     > 2   # O   :   X   :     #     ~ ,.:.j.4.W = 1.z  .,.)  .X o     ' o.^ X.< = +   6 @         @ ",
"  4.gX7X0.x._.C.. / $XuXV./ %X&X  : =X9XH.,.$X0X9Xg.: ].V.  @ *XG.    1XfX3.m.pX;X% Z.;XlXA.a.7XlXd.. z.uX].k.{.yXj.= u.=Xf.X 1 O   e ",
". _.rXeXb.U.'.v.. :.<XhX'.~.7XiX  # ].yX}.`.4XnXMX .E {.!.*.3.|.%Xo ! kXAXA.A.hX8X< :.9XNX&Xv.9XVXN.. f.CX4Xh.<XGXf.2 N.lX2X{ -.h.K . ",
"o i.a.1...1.f.y . = d._.b.s.J.V.  + d.F.N.C._.&Xd.2 E F.Z.<.h._.i.  : H.].c.C.>XB.  A ].&X_.V.[.H.( . o.*X].s.].%Xd.d.D.W.j.| k.4.E % ",
"O @ . . . . 8 O + .   e X @ 9 5     1 o o , .   >   . o . . . . p     m t . + $ Y   . p o X .   C t   # Y 1   ; A 4 T A 2 3 % g x #   ",
"5 9   2 - + O w Q * A e   7 5 7 @     .   *   @ w t   . $ 0 + O   X :       O O 8 e # #     y       @ O         @   X     # + .   . O ",
"  o . % . & . . . . . . . o 8 e     o . $ % . e       . = $   5   @ o . . # 0 I . . . .   . # . X   O @   O : # >   q #   + O   . . O ",
"  K ..L M { G s.2X`.&.G j - < % O   x 3 & $ . . t 1 3 J d $ - b 7 + . $ < . . + b Q z z W c $ d F X   O O       @   X O       + % .   ",
"+ -.`.B [ B J 1.tX2X[ l J n Y.W.+ $  .-.{ 0.3.*.. . s k k ..:.J 7 . $ ..Z...2 x s [ n k x.k.s ..x o . . 8 8 * * 7       1 y . 1 N o   ",
"& k.>Xs ..l j . P.!.s s z s !.`.. . | [ [ 8.-.<   . B [ %.!.m.. i . d m.wXR.k % s [ J k Y.Y.$ { < %   . + = . . O O 6 . 2 2 o H *.Z o ",
"= ^ d.f. .c 3 x . g b b c g % . . o 1 r z W / g . % = 2 E ` E % + % G 3.S.h.J $ g / = 2 B.l.g C e + . # v Y e . . . . - * * Z ) { N o ",
"  . 4 2 . .   . $ 2 2 $ . $ = *       . o g z .   . . . = y # . +     , f < = - . o   . D y   . .       # # +   .   . O     . % < % . ",
"# # X .         X o     .   o o   O       o $ . O X       O             .   . +   #     #     o       + .             O         . .   ",
"    O X O O                     O   O     O #     O       O @       X o o           X O       O       .             O O @ .     . + O ",
"                  X X     X     O O O       X             O +   7           + +       O     O     .       O + O # + . . . .     - - O ",
"O O @         7 X # O     @ X   O     X   . o . O # @ O X X O   #     . - # - - # O # # 7 6 e           . + . . O + o % o , , % 2 -   ",
"      .       . + O       @ # +     + % o $ % . 1 $ . o o * o . o . . 1 x r - $ O . . + # . +             .   . . - g d d d x z j <   ",
". . . o - + . .         + * +       . % . . $ . = $ . . . o . o . . . . . $ $ s o = . . $ o . . . .   .       . $ g Z j d s & $ G f o ",
"  X .   # # .       X     # X     ; X X   X   +   o .     + +             # e . X   1     o   o   X O   O     . . . $ 2 $ .   . Q .   ",
"  # u O   .   0     . O X @     w       t .     X     p P     5 q     t e     #           + O   1     w p     #     X       O O . . + ",
"@ +   + + i 0 .   . # i + . # * O 5 w #     7 I 8 9   7 O   p     : # # e o . , + e   8 i 6 p # o ;     + .     7 w q @ > w w 7 Z r . ",
"  o % y 2 X./ . b % . g c W W o O O .     y b * . # . %   . ^ .       X . < D H % . . , , .   ;   t X   o C 3 <         ;       o %   ",
". ].7X3Xb._.-Xk.J Z.2X7X_.U.3XXXt   D s.&.< G h.) < &.7X4Xe.^.<X$XX C ,X[.s.].yX[.L b._.'.n.+.'.&X(   ` J.H % =.Z.>.{ m.'.q...9.S.N.  ",
"  4XzXhX~.'.+Xn.. b.vXHX'.M.pXhX  3 |.xX^.V C.fXU.M b.SXhX^.'.nX*X  ~ SXzXA.}.nXfX{ _.iXhX3X8.hXKXc.o D.lXC.L ^.rXP.;. XsX XL.R.GXfXo ",
"O &X].XXt.'._...% ) G.zX4X'.iX'.  o V.fX&Xn.W.&X-X&.U.>XF.C.Z.&Xf.4 ` fXzX'.`.iX6Xh >.<XfX.X=.OX8X6.  s.lX1XM.+XfXZ.V m.eX X%.w.&X[.  ",
"O K.E <.=.C.4.z . * u.qX~.,._.S.8   A *XZ.< g a.N.. o.X.2 b . = o   , F.3Xb.-.XX$X. = G.6XW.L h.].6.; >.&Xn.V M.0Xs.. V '.I.[ } <X-X  ",
". . . $ . . * .   q O O   ;   O @   ;   :   + O   u @   q X   ;   X           > . + .   $ .   .   ; #   O     * + # +     # y   o -   ",
"O q p T =   u 7 .   9 ' A   O _ 5   t A t   - ' P 5   8 Y .   r e     a A : # m U e 8 Y Y     T `     i U b 0 . R O + Y R t     3 2 . ",
"X X   o 2 y p   , = 0 . . Z x   O O e . . r / . + = r $ o x S = O 5 u . . c W . . # z . . H o       8 + + = J &   # #     , 3 X . % . ",
"  ) 5.| < j >.H d d 1.k.k d 1.k.  . i.N.G . { 1.[ . l m...$ B q.`   y l...& [ 0.0.d [ 1.0.*.& 0.J.A . 1.{.m.%.L.}.K . f | M % f G h   ",
", XXvXwXL.R.@XT.8.P.gXvXI.w.@XpX. < 1XSXOX#.'.pX@X#.I.mXeX8.I.cX&X4 :.vXgXt.L.dXtXw.T.sXbXT.%.sXAXv.X n.DXoX%.#XJX!.7. XpX/.7.P.zX1Xx ",
". Y.tXwX).).).#.$.I.gXgX(.(.@X/.. < -XgX3X'.wXeX'...t.pXiX/.@XaXG.X G fXnX X(.aXoX%.w.oXsX#XL.@XxX~., 2.vX@X%.).wXP.O.I.pX#XR.P.yX].  ",
"o N.2X.Xm.0.m.=.B L ].9XA.3._.4Xe Y ].fX2X3._.yXF.h K -X}.b.n.<XH., Z 4XjXn.r.3X1XK k }.vXXXn.>XMXi.. l.lX{.*.Y.VXh.. 5.fX.X;.0.jX5Xr ",
"@ O   .   . ;     . # #   o o O O O 6   . X * . . . # .     .   O - + . X     ,       X :       + + - 7   . . .   e     ; X   4 . 3   "
};
