/* XPM */
static char *baa3c4a01c964622de47bc11a0a121d22v4DVj0VCOoXFrkq[] = {
/* columns rows colors chars-per-pixel */
"64 64 256 2 ",
"   c #080019",
".  c #1B0217",
"X  c #300710",
"o  c #122510",
"O  c #05013A",
"+  c #1C0537",
"@  c #1B1B3D",
"#  c #1D1539",
"$  c #120C2D",
"%  c #280525",
"&  c #26142C",
"*  c #250A37",
"=  c #24133D",
"-  c #2B143C",
";  c #291A39",
":  c #351A3B",
">  c #390A30",
",  c #192332",
"<  c #392727",
"1  c #282A3C",
"2  c #332639",
"3  c #26353A",
"4  c #3B343B",
"5  c #282C2A",
"6  c #482427",
"7  c #44263E",
"8  c #513134",
"9  c #5A2732",
"0  c #364123",
"q  c #524634",
"w  c #6F4D34",
"e  c #725010",
"r  c #080449",
"t  c #1A0846",
"y  c #18164A",
"u  c #0B0158",
"i  c #170459",
"p  c #181755",
"a  c #001945",
"s  c #280B45",
"d  c #2C1443",
"f  c #2C1B45",
"g  c #2C1C4B",
"h  c #271548",
"j  c #331D4C",
"k  c #3C1B4D",
"l  c #331847",
"z  c #23025A",
"x  c #390C59",
"c  c #2C1553",
"v  c #2A1B55",
"b  c #341D53",
"n  c #3A1C5C",
"m  c #381959",
"M  c #350B47",
"N  c #19234F",
"B  c #282746",
"V  c #33234C",
"C  c #3B244C",
"Z  c #3B2B4C",
"A  c #372546",
"S  c #373547",
"D  c #2A2657",
"F  c #342353",
"G  c #3B2453",
"H  c #3C2A54",
"J  c #3C245B",
"K  c #352B5B",
"L  c #3C2B5B",
"P  c #342757",
"I  c #3D325B",
"U  c #3A3557",
"Y  c #293A4D",
"T  c #06006A",
"R  c #060071",
"E  c #191367",
"W  c #291763",
"Q  c #391C67",
"!  c #2F1072",
"~  c #252565",
"^  c #2A2667",
"/  c #2F2967",
"(  c #292768",
")  c #2C2969",
"_  c #332664",
"`  c #342965",
"'  c #3A2A66",
"]  c #342B69",
"[  c #3B2D6B",
"{  c #392566",
"}  c #3E306D",
"|  c #3A3567",
" . c #392774",
".. c #393272",
"X. c #2A2B6F",
"o. c #421A59",
"O. c #481C4E",
"+. c #422C4B",
"@. c #472848",
"#. c #572B4A",
"$. c #45364B",
"%. c #593A4A",
"&. c #422455",
"*. c #432B55",
"=. c #4A2B53",
"-. c #41255B",
";. c #442C5B",
":. c #492E5C",
">. c #4A2456",
",. c #552955",
"<. c #443454",
"1. c #4B3454",
"2. c #45325C",
"3. c #4B325E",
"4. c #473A59",
"5. c #54355B",
"6. c #543D5D",
"7. c #583857",
"8. c #683D49",
"9. c #683D54",
"0. c #6F234A",
"q. c #44156C",
"w. c #442D64",
"e. c #412E6E",
"r. c #4B2C6C",
"t. c #482666",
"y. c #562B68",
"u. c #453265",
"i. c #4C3362",
"p. c #44316C",
"a. c #4C346C",
"s. c #4B396B",
"d. c #4D3A65",
"f. c #513564",
"g. c #523965",
"h. c #51356D",
"j. c #533A6D",
"k. c #5A386A",
"l. c #4B2A76",
"z. c #542B72",
"x. c #453171",
"c. c #4C3274",
"v. c #4E3971",
"b. c #46337A",
"n. c #533574",
"m. c #5B3675",
"M. c #553A73",
"N. c #593C76",
"B. c #56357A",
"V. c #5B367A",
"C. c #573C79",
"Z. c #5C3D7A",
"A. c #683766",
"S. c #603C76",
"D. c #61377A",
"F. c #623A7A",
"G. c #653D7A",
"H. c #623A7D",
"J. c #613D7E",
"K. c #663D7D",
"L. c #633C7B",
"P. c #6A3D7D",
"I. c #733C72",
"U. c #354552",
"Y. c #57425A",
"T. c #4A4653",
"R. c #674447",
"E. c #68514B",
"W. c #79564D",
"Q. c #6B525E",
"!. c #795454",
"~. c #704957",
"^. c #7B6753",
"/. c #464467",
"(. c #5C4176",
"). c #5D417B",
"_. c #564474",
"`. c #514871",
"'. c #654669",
"]. c #765766",
"[. c #62437D",
"{. c #69417E",
"}. c #644778",
"|. c #675372",
" X c #71496D",
".X c #8E5539",
"XX c #88673D",
"oX c #937132",
"OX c #AD7437",
"+X c #9B5E10",
"@X c #E67A31",
"#X c #823C5E",
"$X c #863A61",
"%X c #844C46",
"&X c #8A5655",
"*X c #886854",
"=X c #946E4F",
"-X c #A67948",
";X c #A7795A",
":X c #AF6F4E",
">X c #865474",
",X c #946E6D",
"<X c #AD736A",
"1X c #CA786D",
"2X c #CB7842",
"3X c #AF8B2D",
"4X c #AA8F1D",
"5X c #CF8D1E",
"6X c #F19414",
"7X c #F3AF18",
"8X c #D39132",
"9X c #F59630",
"0X c #DDAE35",
"qX c #F6BB2D",
"wX c #F2AE35",
"eX c #F8C43A",
"rX c #B08D51",
"tX c #9C8460",
"yX c #BA9169",
"uX c #C28853",
"iX c #C69853",
"pX c #D29751",
"aX c #F69A4F",
"sX c #D4A74B",
"dX c #F0AD50",
"fX c #CA8C6C",
"gX c #F4A967",
"hX c #CEA261",
"jX c #1C0080",
"kX c #36348B",
"lX c #331E95",
"zX c #482C88",
"xX c #5B3985",
"cX c #4D2F8D",
"vX c #693D81",
"bX c #6E3795",
"nX c #6D3BA7",
"mX c #571E8F",
"MX c #5E4684",
"NX c #554B92",
"BX c #644481",
"VX c #694180",
"CX c #6C4482",
"ZX c #664987",
"AX c #714483",
"SX c #734C86",
"DX c #724A8B",
"FX c #6E528C",
"GX c #785588",
"HX c #765799",
"JX c #6D4C97",
"KX c #724CAA",
"LX c #7B6089",
"PX c #875799",
"IX c #9E7A85",
"UX c #C1AF81",
/* pixels */
"( ~ ~ ~ ( ) ( ~ ~ ~ ~ ~ ) ~ ) ~ ~ ( ( ( ( ( ~ ( ~ ~ ~ D ~ ~ ~ ~ ~ ^ ( ~ ~ ~ ~ ( ^ ~ ~ ~ ~ ~ ( ~ ~ ~ ~ ~ ~ ~ D ~ ~ ~ ~ W ~ ~ ~ ( ",
"( ~ ~ ( ~ ) ( ( ~ ~ ~ ~ ~ ~ ~ ~ ~ ^ ( ( ( ( ( ( ~ ( ~ ~ ^ ~ ~ ~ ( ^ ( ( ( ( ( ( ^ ^ ( ( ) ) X...( ( ~ ~ ^ ^ ~ ~ ~ ~ ~ ^ ( ( ( ( ",
"^ ) ) ) ^ ^ ) ] ~ ) ) ~ ^ ^ ) ^ ^ ^ ) ) ( ) ) ) ) ) ( ( ) ) ) ) ] ) ) ) ^ ) ) ) ~ ~ ^ ( ) ] ..../ ^ ) ^ / ^ ) ) ( ) ) ) ) ) ) / ",
") ) ] ` ) / ....] ] / / ^ ) ` ] ] ) ] ) ] / / / ) ) ] ) ) ` ) ` ] ] ] ) ) ` ) ) ` ) ) ( ] ) ) ) ) / / / ) ) ` ) ) ) _ ) / ) / / ",
"` ] [ ] ) ] } ....[ ] ] _ ) ] ] ] ] ] ] ] ] ] ] ` ` ` ` ] ] ` ] [ ] ] ] ` ` ] ] [ [ [ ] ] ] ] ` ` ` ` ] ] ] ] ] ) ] | } ] ` ] ] ",
"` ` { ] _ _ ] [ ] ] _ _ K _ _ ` [ [ [ [ [ [ [ ] ` ] ] ] ] ` ] ] [ ] ] ` ] ' [ ] ] ] [ [ [ ] ] ] ] ` ] ` ] ` { ` ] } ....| ` ] [ ",
"[ [ ] ] [ } [ [ { { ] [ ] ] [ ] [ [ [ [ [ [ [ [ [ ] [ { [ [ ' [ [ ] [ [ [ } } } ` ` { ] [ [ [ ] [ ' [ [ ] { [ [ [ e.x.x.e.[ [ } ",
"x.p.[ p.x.x.} [ [ } [ p.p.x.p.x.[ [ } } e.e.[  .e.[ e.e.[ e.[ [ [ [ [ [ } } p.x.[ } p.x.p.e.[ [ [ e.[ } e.e.} [ { [ x.x.[ [ ] [ ",
"p.[ p.e.e.e.e.e.e.e.e.e.e.e.e.e.e.e.e.e.e.e.} e.e.e.e.e.e.} e.[ e.e.[ e.[ [ e.e.e.e.e.e.x.} [ e.e.e.e.e.e.e.e.e.p.x.e.e.e.e.e.e.",
"x.p.e.e.p.p.p.e.p.e.e.e.e.e.e.e.e.} e.e.e.e.x.e.e.e.e.x.e.e.x.x.e.x.x.x.x.x.x.e.e.e.e.e.} p.x.p.e.e.e.} e.e.e.e.x.e.x.[ e.e.e.e.",
"x.x.e.x.x.x.x.e.x.x.x.x.x.x.x.x.x.x.x.l.x.x.x.x.x.x.x.x.x.x.x.x.x.x.x.x.x.x.c.x.p.e.x.p.p.x.x.x.x.x.x.x.x.x.x.x.x.x.x.x.x.x.x.x.",
"x.c.c.c.x.c.c.x.c.c.c.x.x.c.c.l.c.c.c.c.l.c.c.x.l.c.x.c.l.c.c.c.c.c.c.c.c.c.c.c.c.c.c.c.c.c.x.c.c.l.c.c.c.l.c.l.c.x.c.c.l.x.c.c.",
"c.c.c.n.c.c.n.c.c.c.c.c.c.c.c.c.c.c.B.c.c.c.c.c.c.c.c.c.c.c.c.c.c.c.c.c.c.c.c.l.c.c.c.c.n.n.c.c.c.c.c.c.c.c.c.c.c.c.c.c.c.c.c.c.",
"B.n.B.B.n.B.B.B.B.B.B.B.B.B.B.B.c.B.B.c.B.B.B.B.B.B.B.B.B.B.B.B.c.B.z.B.c.B.B.B.n.B.n.B.B.B.B.B.B.B.B.B.B.B.B.B.B.B.B.B.B.B.B.B.",
"B.B.B.B.B.B.B.B.B.B.B.B.B.B.B.B.B.B.B.B.B.B.B.B.B.B.B.B.B.B.B.B.B.B.B.B.B.B.B.B.B.B.B.B.n.B.B.B.B.B.B.B.B.B.B.B.B.B.B.B.B.B.B.B.",
"B.B.B.B.B.V.B.B.B.xXB.B.B.B.B.xXB.B.B.xXB.B.B.B.xXB.B.B.B.B.V.V.B.xXB.B.xXB.B.B.B.B.V.B.B.B.C.B.B.B.xXB.B.B.B.B.xXB.B.B.B.B.xXB.",
"V.V.V.C.C.xXZ.Z.V.V.Z.V.V.V.V.B.N.N.m.m.Z.N.Z.m.B.B.V.B.Z.xXZ.xXH.D.V.Z.V.V.V.V.Z.V.B.M.B.V.B.M.B.B.B.B.V.V.xXV.m.F.F.V.D.F.D.V.",
"J.Z.H.V.V.V.V.F.V.V.V.H.vXZ.V.H.Z.F.Z.Z.D.S.Z.m.vXK.Z.vXvX{.V.vXV.V.H.H.H.vXH.H.J.D.m.Z.Z.F.D.m.vXV.V.Z.H.H.J.Z.F.H.H.F.m.F.D.G.",
"K.K.H.D.F.H.K.vXF.D.D.K.J.vXJ.K.K.G.F.L.K.K.G.S.D.H.H.H.Z.H.F.F.D.D.V.K.J.K.K.J.D.S.m.G.G.{.G.S.H.K.vXK.K.H.K.J.BXvXZ.J.Z.J.vXBX",
"{.K.P.G.P.P.VXVX{.K.P.K.K.P.G.D.P.F.D.G.VXVXP.P.D.P.P.G.F.F.G.K.[.{.vX[.{.K.K.F.G.G.G.{.P.G.G.G.D.G.P.VXK.G.G.P.ZXvXZ.V.Z.V.vXBX",
"P.AXvXvXP.P.P.L.G.K.F.G.P.P.P.P.vXm.m.F.{.VXVXVXvXAXAXAXVXP.VXVXZ.J.[.BXCX{.K.K.{.{.{.{.{.P.{.{.G.P.{.VXvX{.VXCXBXV.M.B.B.n.M.H.",
"BXAXAXAXvXP.m.h.M.m.m.D.{.AXAXAXCXm.h.m.[.Z.J.BX{.AXAXP.G.Z.L.[.M.m.Z.{.CXAXCXAXCXCX{.{.K.K.{.CXCXVX{.{.CXCXAXCXV.a.r.r.a.r.r.B.",
"N.[.AXSX{.P.h.w.a.f.f.N.{.AXAX{.FXM.r.h.M.M.V.).{.{.{.G.M.h.a.h.i.h.V.[.{.AXAXAXZ.L.F.Z.m.H.VXZXSX[.S.S.{.{.[.G.C.a.w.v.c.w.w.n.",
"s.M.{.GXSX{.M.u.s.a.a.N.[.AXCX{.FXC.w.a.n.a.a.M.AXSXSX{.j.h.a.s.r.h.j.S.{.AXAXAXn.n.z.r.a.B.xXZXFX[.M.m.N.[.[.j.).c.c.M.c.a.p.C.",
"h.m.N.[.[.(.M.m.M.h.m.C.N.M.M.N.BX).M.a.h.M.M.M.[.N.[.CXV.s.M.v.M.h.N.BX[.M.Z.SXh.a.n.M.M.h.M.N.N.M.n.v.M.M.M.h.c.c.a.n.c.v.c.M.",
"M.M.M.M.V.M.M.h.M.h.M.N.N.n.n.M.).C.M.M.M.N.V.M.Z.M.).[.M.M.N._.M.h.M.C.N.n.m.K.M.M.h.M.M.n.M.N.Z.M.M.M.V.N.N.N._.M.v.C.N.v.M.C.",
"N.N.V.j.M.M.M.v.V.M.M.N.N.M.M.M.M.M.C.Z.).N.C.N.Z.h.M.C.n.a.)._.M.N.N.N.N.C.N.N.N.n.h.M.N.N.N.N.C.N.N.N.(.).C.N._.M.M.C.M.v.v.M.",
"N.N.).N.C.C.C.).(.N.M.Z.).N.M.V.M.N.).).C.N.N.).).h.j.M.u.p.v.v.M.M.M.M.Z.[.{.N.M.r.w.v.C.).).).N.N.N.N.C.N.(.N.C.v.c.s.v.a.p.a.",
"M.M._.).).C.).).).(.M.(.).).Z.).Z.).).).M.h.N.).[.h.a.a.w.w.p.u.w.p.a.a.M.).[.N.s.p.w.a.C._._.C.N.C.).).).C.Z.N._.s.u.p.p.w.w.u.",
"w.a.M.N.N.C.C.).[.C.M.N.[.).).).[.[.MXN.a.a.M.[.N.r.a.a.' w.p.u.u.w.w.s.N.).).[.M.p.w.a.s.c.a.a.).).[.[.).).).Z._.s.u.u.s.u.u.p.",
"r.a.v.M.v.a.N.).).M.n.V.).).).).).BX).N.h.r.M.[.C.p.p.a.p.u.s.p.v.p.s.M.C.M.C.[.v.a.p.a.a.p.u.a.N.).).[.Z.N.M.M._.s.u.u.s.d.s.u.",
"s.a.v.a.p.s.M._.).M.a.M.).).Z.).N.[.BX).r.a.M.[._.a.a.s.a.p.v.p.v.u.p.v.C.a.a.).v.p.a.a.s.p.p.v.M.N.C.).M.a.c.a._.s.u.u.s.s.s.s.",
"h.j.M.h.h.h.M.j.n.s.v.s.a.a.v.s.p.v.M.M.s.i.j.k.N.h.a.a.c.v.v.a.M.a.a.v.M.n.a.M.j.j.f.f.j.j.j.f.).C.V.a.h.M.M.h.r.a.M.N.j.h.j.h.",
"h.j.M.j.h.j.h.j.v.v.M.v.M.v.M.v.M.M.v.s.j.j._.j.2.a.M.N.C.v.v.C.i.M.M.w.w.a.M.i.f.j.j.j.j.f.f.h.M.M.M.h.h.N.M.M.M.j.h.j.j.M.j.M.",
"h.j.M.j.j.M.j.N.M.M.s.M.M.M.M.M._.M.h.j.M._.j.s.j w.v._.N.v.j.C.M._.i.s s ;._.M.M.N.).N.M.j.j.N.a.M.N.M.M.M.N.M.[.N.j.j.j.N.M.j.",
"M.M.j.N.M.M.N.).C.N.C.C.C.N.N.N.C.M.M.j.(._.s.L h j w.j.C._.N.V.M.M.;.= + F M.(.N.N.C.C.V.M.M.M.M.(.(.V.j.V.N.M.N.N.M.j.N.M.N.M.",
"N.j.N.(.N.j.M.Z._.N.Z.C.(.Z.C.N.C.N.N.(._.j.L j g g j w.M.[.).M.v.;.V l f j i.C.).M.n.M.C.).C.M.V.).).C.N.C.).N.a.j.).).N.j.N.N.",
"(.N.(.[.N.a.i.h.C.).).).N.).).).N.L.).).M.u.P g V g h G a.[.}.Z.C.F * - - * F ).}.N.h.j.).[.[.(.N.(.C._.).[.).V.J u.).}.}.N.N.(.",
").(.(.[.M.;.n -.Z.).N.[.).Z.).Z.N.[.[._.u.F g g f g g C -.h.(.CXZXG * - - * b C.N.h.i.u.j.(.).N.).).).).[.).M.-.k -.M.).).).).[.",
"ZX).(.[.n.J d l N.N.L.N.Z.Z.Z.C.G.BXBXM.P f v g # f F j j &.j.ZX).-.F 6.Y.*.G w.;.-.G k G *.i.f.BX).BXBX[.).w.c j n i._.).[.}.).",
"SXbX>.7 h g 2 Q h c Q m c l : 2 B.HX}.j l H B * y ; N A s D N bX[.`.u +X3Xi B - - r oX.Xu N . B.`.KXA.DXNX4 W k , P c 1.Y.KXxXj.",
"G.NXC & h :.2 ] V f f j m d d - Z.).*.l Z H V L U 2 y 2 '.D o A.SXU i yXhXi y G l u =X=Xr P 7 d 1.}.I.G.MX# b : 9.O.s + N.ZXZXGX",
"'.BX- & F 2.& D Z ; & ; A g h h N.[.&.f H H V F r * X.G % E | x ZXU i %X*Xz B m B ! R.q E _ M B o. XPX,.-.$ ~.=X1X:X>X. c.`.`.k.",
"}.s.s G { P + V L G ; ; ; f g v &.}.k.l j P g + ;X=Xm ~.:XY., BXZXY.m & > Q S c @ q.: : { k s <.mX}.xXF j + -XiX5X5X-X  c <.|.HX",
"BX;.c w.j b m L Q t.J g = = f = s '.}.C f F g v 0XsX+ ,X8X&X  JXKX1.-.m c n +.P Y ,.O.v A 9 l.B nX}.W B K m w w oXoX*XG  .j C DX",
"JXg.b n & G n C M o.{ F V V A l m (.(.;.V = h u.5XpXq.IX5X=Xi KXHXf.:.| v &.=.P 2 :X%Xp E.=Xy.f '.Q.D B G m s m O + t W Q g O.m.",
"KXY.- 1.E.%.d %.8.7 l G ' H Z +.M.SX).;.V f - I pXsX% =XwX&XO Y.ZXy.>.@ $ C y.h +.aX:Xr ;X8X,.y 9.JX`.= %.R.m  .zXzX-.Y.#.- ZXFX",
"KXY.. Q.UX*X& >XyXW.< Z [ F l =.B.HX}.G Z <.Z V &X*XK 9 +XvXkX4 `.q.O.B , j z.$ Q.9X3Xp OX7X9.v AXKXZX+ ,XrX7.# 2 - 8.yX=X% xXHX",
"KX_.R oXgXOXt yX6X=X  u.@.h y 7 NXJXvXq.t.r h =.t t F g t V V K mXo /.h 2 Z G ! w dX-Xs ;X8X>X+ AXPX~.r rXdXw r 4 T e qXrXR NXGX",
"|.E.T rXqX0Xz 3XaX,Xu zXG y c t.0 LXPXs q 3X*Xs F v u.J g H L i.: 0 kXz M Q S @.l.~.8 B I.0.{ S P.DX7.u rXgXR.r 5 T W.dXrXu `.GX",
"5.6 T rX7XiXz 4XeX,Xi Q 5 o # q.|.PXxXO *XdXuXu f d H g = j F K :.S W A.&Xy.v 2.1 q.l 3 8.%XZ Y FXPX7.W tXfX Xr U E ^.fX<XW B o.",
"m }.! E.hX<XR -X3X&Xk v.1 3 4 5.cXI.M.p E.@X2Xp 2 ; Z V = F H 2.B.U O :XdX Xy u.5 x e.B XXsXR.g k.FXi.W 8 w r.f -.W S 9 o.U S r.",
"' * kX1.% V kX. > 6 < s.! ! P 2 B #.1.N *X9X2Xy A : *.A - H *.:.C | t rX0X!.y 1. .: t.T ;X0X8.n &.j.P { : <  .4.% V 4.=.r.T.4 o.",
"4.*./.Z o.B K >X&X9.r.b.6.&X].] cX@.@.B  X<X<X# Z V *.C f C G H t.U + uXqX!.t w.K X m T rX7X8.o.=.d.P f.&.4 ! ~.<X^.D L q.S V m.",
"S : F *.#.@ U.fXdX*X{ p e 6X-Xp zXF 7.w.! z o.<.i.-.g.2.C 2.2.3.m.L t ;X0X!.h l.5 > G p OX0X!.c =.I P ,.m B u XXaXXXO V t.S K >.",
"J k.zXq.X V H OXpXW.H N .XaXuXa q 2 y.y.<.5 Y G b g -.G j *.+.*.6 T.lXvX%X7.V 7.NXQ 7 U.,.$Xz.2.#.4.{ #.M B u -X9X-Xr A c 4 b.5.",
"2.Z S K t * R.yX7X:XX.i .XaX;Xb i.L <.i.j + - 3.= = H H $ V /.2.;.=.J G &.-.;.:.*.>.;.*.&.*.*.*.:.&.w.n ;.;   IXdX-X% g # T.;.y.",
"w.H $.I m d %.=X8X%X` K 8..X8.H 3.;.2.4.H d g 3.- = H V * l 3.H i.:.*.>.*.;.:.3.=.;.:.*.;.:.*.;.*.;.f.G ;.C & ].rXW.O.[ V <.@.o.",
"t.<.$.I ' J 1.R.~.$.Z 4.i.C A 4.:.i.3.3.*.C *.2.V V 2.;.l H d.L :.i.:.;.:.:.:.i.:.:.:.:.:.:.:.:.*.1.j.&.;.g.A 7.7 o.t.c.3.$.1.j.",
"z.:.$.$.i.a.3.=.Q >.=.<.| | p.3.;.4.i.3.2.3.i.:.2.2.d.d.;.4.g.2.:.i.i.i.i.i.i.:.3.3.3.3.3.3.3.3.1.*.g.:.:.k.:.*.K ' B.r.5.@.2.a.",
"r.i.1.@.<.i.a.-.[ k.y.>.U /.d.-.;.:.5.:.3.f.g.:.3.2.i.i.2.3.i.*.i.:.i.:.i.i.:.:.3.3.3.3.3.3.3.3.5.+.i.f.:.i.i.:./.2.g.=.k.@.w.e.",
"r.f.3.*.*.i.a.r.3.i.y.f.4.$.:.y.;.i.i.:.i.5.f.:.3.3.2.3.i.3.:.:.:.:.i.i.i.:.w.i.3.3.3.3.3.3.3.3.g.*.2.j.:.*.i.i.$.S 1.+.Y.f.j.a.",
"2.s.f.:.:.1.f.f.1.;.3.d.i.>.:.g.5.:.:.f.i.3.:.f.i.i.3.3.f.i.3.g.i.i.3.i.3.i.3.i.3.3.3.3.5.i.3.3.i.i.:.f.i.;.:.f.k.5.6.3.i.w.;.@.",
"<.i.a.h.f.5.1.3.h.4.U I z.V.i.S k.3.:.f.5.:.:.g.3.f.5.3.f.5.3.j.f.i.i.i.i.i.i.i.i.3.f.3.i.i.i.3.t.j.i.:.f.5.f.:.y.i.i.s.x.s.f.7."
};
