/* XPM */
static char *_4afee04058b40438e3390fdaa74d8f5qWyXIQHQYw9fD1kp[] = {
/* columns rows colors chars-per-pixel */
"64 64 248 2 ",
"   c #030102",
".  c #0B0101",
"X  c #020B04",
"o  c #0C0A04",
"O  c #01030B",
"+  c #0B040B",
"@  c #010B0C",
"#  c #0C0B0C",
"$  c #120202",
"%  c #1C0201",
"&  c #130A05",
"*  c #12030C",
"=  c #130B0C",
"-  c #1B0C0D",
";  c #1A0806",
":  c #071309",
">  c #15120D",
",  c #1B130D",
"<  c #010313",
"1  c #0A0413",
"2  c #010B14",
"3  c #0C0C13",
"4  c #01011D",
"5  c #0A061E",
"6  c #010B1C",
"7  c #0B0B1C",
"8  c #120B12",
"9  c #130D1B",
"0  c #1C0E1B",
"q  c #160814",
"w  c #021215",
"e  c #0C1215",
"r  c #02131C",
"t  c #0B121C",
"y  c #021A1D",
"u  c #131313",
"i  c #1B1413",
"p  c #1A141C",
"a  c #17171A",
"s  c #2A0C0C",
"d  c #270606",
"f  c #27140F",
"g  c #290D13",
"h  c #320E12",
"j  c #231412",
"k  c #2C1213",
"l  c #241A1A",
"z  c #29181A",
"x  c #331315",
"c  c #36191D",
"v  c #38181A",
"b  c #300E0D",
"n  c #02221F",
"m  c #26211D",
"M  c #29210E",
"N  c #010222",
"B  c #0A0424",
"V  c #010B23",
"C  c #0B0C24",
"Z  c #02042A",
"A  c #020A2C",
"S  c #0B0C2A",
"D  c #09062C",
"F  c #150B28",
"G  c #021323",
"H  c #0B1424",
"J  c #031A24",
"K  c #0B1A25",
"L  c #03132B",
"P  c #0C142D",
"I  c #041B2B",
"U  c #0B1B2C",
"Y  c #1B1B23",
"T  c #161829",
"R  c #020333",
"E  c #030B32",
"W  c #090D32",
"Q  c #02053A",
"!  c #020C3A",
"~  c #0B0837",
"^  c #140D35",
"/  c #031333",
"(  c #0B1235",
")  c #021C33",
"_  c #0C1C32",
"`  c #04133C",
"'  c #0C143A",
"]  c #021C3A",
"[  c #0C1A3B",
"{  c #121C33",
"}  c #11143A",
"|  c #121D3C",
" . c #1C1934",
".. c #291A24",
"X. c #351D28",
"o. c #281E32",
"O. c #04232C",
"+. c #0B222D",
"@. c #062628",
"#. c #14242D",
"$. c #1C242B",
"%. c #162929",
"&. c #042335",
"*. c #0C2333",
"=. c #032A36",
"-. c #0D2A34",
";. c #05253B",
":. c #0A2639",
">. c #052D3A",
",. c #0C2B3B",
"<. c #122434",
"1. c #1A2433",
"2. c #132B34",
"3. c #1C2A34",
"4. c #14243B",
"5. c #1A253C",
"6. c #132C3C",
"7. c #1B2C3C",
"8. c #06323D",
"9. c #0C323D",
"0. c #14313B",
"q. c #1B313B",
"w. c #16383C",
"e. c #1E3629",
"r. c #242224",
"t. c #2B252A",
"y. c #2C2A2C",
"u. c #292925",
"i. c #32232C",
"p. c #322C2C",
"a. c #372726",
"s. c #2B342C",
"d. c #34322E",
"f. c #383227",
"g. c #242433",
"h. c #232C3B",
"j. c #272936",
"k. c #352A33",
"l. c #283439",
"z. c #343333",
"x. c #3D3433",
"c. c #3A3A39",
"v. c #433D3A",
"b. c #423737",
"n. c #452321",
"m. c #3D423E",
"M. c #47433A",
"N. c #50433B",
"B. c #000143",
"V. c #060A40",
"C. c #051844",
"Z. c #141841",
"A. c #022B44",
"S. c #0D2E41",
"D. c #0C2C4C",
"F. c #022845",
"G. c #132D43",
"H. c #172945",
"J. c #063649",
"K. c #133243",
"L. c #1C3345",
"P. c #19364C",
"I. c #013B53",
"U. c #083956",
"Y. c #133B53",
"T. c #1D3B53",
"R. c #153858",
"E. c #102A58",
"W. c #253847",
"Q. c #383A48",
"!. c #263A56",
"~. c #2F344A",
"^. c #023C64",
"/. c #1B3B65",
"(. c #443D46",
"). c #433E57",
"_. c #0C435D",
"`. c #06445B",
"'. c #134255",
"]. c #14435B",
"[. c #1A455C",
"{. c #1B4755",
"}. c #13494F",
"|. c #27444A",
" X c #394448",
".X c #244254",
"XX c #284755",
"oX c #3C4754",
"OX c #33585C",
"+X c #2D575E",
"@X c #0B4463",
"#X c #0A4B65",
"$X c #074867",
"%X c #1B4B63",
"&X c #154C6B",
"*X c #1B4C6B",
"=X c #174665",
"-X c #07546B",
";X c #175669",
":X c #0A4C72",
">X c #194677",
",X c #085B76",
"<X c #145374",
"1X c #195677",
"2X c #234B6C",
"3X c #254864",
"4X c #344D62",
"5X c #255669",
"6X c #395567",
"7X c #275B75",
"8X c #325676",
"9X c #096378",
"0X c #156476",
"qX c #34697C",
"wX c #246673",
"eX c #4C4642",
"rX c #43444C",
"tX c #4D444C",
"yX c #474847",
"uX c #534A4C",
"iX c #534847",
"pX c #4C4B55",
"aX c #474857",
"sX c #534B54",
"dX c #564C57",
"fX c #47535C",
"gX c #5C5654",
"hX c #57525A",
"jX c #525242",
"kX c #645A5B",
"lX c #6C6457",
"zX c #445868",
"xX c #555664",
"cX c #4F5269",
"vX c #4A656C",
"bX c #6D6E6F",
"nX c #85797C",
"mX c #076785",
"MX c #146A87",
"NX c #107192",
"BX c #2C6B89",
"VX c #7F7E83",
"CX c #417BA0",
"ZX c #7B8D8D",
"AX c #909192",
"SX c #BCB7B9",
"DX c #9CAEAE",
"FX c #C6C7CC",
/* pixels */
"4 N N N Z N N N Z N B N 4 4 4 4 4 5 5 B N N E V 4 4 N N < 4 6 4 4 N N Z N N N N 4 N 4 4 N 4 4 4 N N 4 N 4 4 4 4 4 4 4 N N V N N ",
"4 N N N N N N N N N N N 4 B 4 4 B B 5 5 4 4 N 4 V N V V 4 6 4 4 N N N N N N N N N 4 N 4 4 N 4 4 N 4 N 4 N 4 4 4 < 4 4 N N N N V ",
"4 N N N N N N 4 D N N N 4 4 4 4 5 4 4 N N N V S N 4 N N 4 4 4 N N N N N N N N N N N 4 N N N 4 N N N 4 N 4 4 4 4 4 4 4 4 N N N N ",
"N N N Z S Z Z Z D D N N 4 4 4 4 N P V P P V V C H N P P B 4 S B N N N 4 N N N N 4 N N 4 4 4 N 4 N N N 4 N 4 N 4 N N N N Z A A Z ",
"N 4 V E } ( } } A Z N N 4 N 4 4 4 5.1.h.1.g.g. .g. .o.k.Z.B B 4 N 4 4 N 4 4 N 4 N 4 N N N 4 N 4 N N N N N N 4 4 4 N N N W } | ' ",
"N 4 N S ( W E ( S Z V N 4 4 4 4 N aXcXcXaXxXhXxXxXdXxXcX).F  .B 5 5 4 4 4 N N 4 N 4 4 N N N 4 N N N N N N 4 N 4 4 N N N S ' ' Z ",
"V N N A W S A Z E A V N 4 4 N V < aXaXaXg.j.t.(.sXsXsX).).< B 4 4 4 4 < 4 4 4 4 4 N N N 4 N N N N N N N N 4 N N N N N N Z ! W Z ",
"V N N W } ' ( ' E A Z N 4 N N 5 < aXpXdXt.t.i.dXtXtXsX).).4 ^ 4 4 < 4 4 4 4 4 4 N 4 4 4 B 4 B N N N N N 4 N N 4 N N Z Z W Z.} ! ",
"V N N A / / E ( A E Z N N N 4 N 1 (.dXsXkXdXuXgXiXhXdXpX(.6 H 4 6 4 < 4 6 < 4 V 4 V 4 4 N B 4 B N N N N N 4 N N N N Z N ! | ! W ",
"N N N A E A A / A E V N N 4 4 5 1 tXhXtXdXiXiXuXuXyXa $.7 < 6 2 < < P { P 6 < 4 4 4 4 4 C N 4 N B N N 4 4 B 4 B N N N N R ' Q E ",
"Z N A ( ' ( / ` E E V N N N N 5 O tXdXyXuXsXpXfXpXrXj. X3.H < < < V <.7.6.L 6 6 < V V 6 B B 4 5 4 4 N 4 5 N 4 4 N N Z Z ( Z.W ` ",
"N N N E ( E A A A E Z N N N 4 C < aXhXoXdXfXaXoXzXOXzXfX|.2 r K -.*.+.*.6.2.I J _ _ L 4 B 4 < B B 4 B 4 4 4 4 5 4 4 N N E ' E ! ",
"N N Z W ' E E E A E V N N N N B 6 oXoXoX6X4XXX.XW.L.XX!.7.< 6 J L.,.&.&.,.0.9.,.0.6.U 6 C 4 4 5 4 4 4 4 4 4 4 4 4 4 N N A ` E ! ",
"Z N Z W } ' ' [ E E Z N N N N B < |.XX{.+X[.'.R.%XY.S.T.6.*.G *.-.>.8.8.>.>.-.9.,.2.U G 5 6 < 4 < 4 1 4 4 5 4 4 N V Z N W Z./ ` ",
"N N N R E A R E A E Z N N N 4 V 6 Y.{._.=X_.@X<X<XR.;.;.6 N 6 L =.8.8.8.8.=.=.8.-.-.U G t 6 < < < 4 4 < 1 4 4 4 4 4 N N A ' A E ",
"B N N D A Z Z Z A E Z N N B N Z G [.[.].&XI.$XBX&X*XBX2XP.A V U K.S.>.>.8.8.>.-.,.,.+.G 6 6 O < < < < 4 4 4 5 N 4 N V N E ' E / ",
"N B 4 B Z N Z N S A Z N N N B N Z D.A.A.I.`.-X$X$X$X@X].Y.V G U ,.S.,.>.>.,.,.,.-.6.+.I G r t 2 6 2 G 6 G 4 N N 4 N N N W [ ' ` ",
"4 4 4 N N 4 Z N A Z N N N N N N N D.C.A.7X`.J.`.$X#X*X[.Y.6 G *.,.,.:.&.:.S.,.;.G.G.J 6 6 J h.W.3.#.2.K T 4 V 4 N D N N E W A A ",
"4 N 4 4 4 4 V 4 V N N N 4 N 4 N Z R.R.].5XwX;X$X$X&X7X%XY.4 r +.0.,.&.&.) ) L G :.6._ G 6 < < O @ O 2 < V 4 4 4 N D N Z W ( A E ",
"4 B N N N 4 N 4 4 4 4 4 4 N N N Z R..X].U._._.I.I.@X=X3XT.6 L *.-.&.) I &.=.&.&.&.6._ J G r #.K J y K r H 6 N 4 4 N N N W } ( ' ",
"4 N < 4 4 4 V V V V V V 4 4 4 4 N Y.Y.Y.5X[.`.;X_.=X=XR.R.6 6 G L.9.&.&.&.,.,.-.,.G.U G 6 J 3.h.3.#.#.K T 6 4 4 N N N N S Z Z D ",
"4 N 4 V V 6 *.<.*.<._ P V V N V V Y.Y.'.7X5X%X%X*X*X=X3X!.L J +.,.I G 6 6 6 6 4 -.K.*.J < < < O O O 6 < 4 < 4 4 B N N N D D N V ",
"N N 4 P _ L *.q.G.7.4._ L V N A L Y.{.Y.J.].'.) ] / ` ] ] 6 V I K.,.&.&.&.&.;.,.&.6.U I r G 1.1.K r K 7 H 4 C 4 4 N 4 N D D N Z ",
"4 4 N 4.7.G I -.*.2.*.U V 4 4 V N Y.'.{.7X5X[.5XR.R.Y.D.G.4 G _ G.,.;.:.:.,.,.S._ -._ J G r 1.<.1.#.#.H H 6 < 4 B N 4 N D Z N N ",
"4 N V 4.G.*.J 2 O.-.2.U L V N N A J.Y.'.5X5X%X8X2X2X/..XG.L G J -.,.S.G.,.,.:.:.:.G.*.I 6 < 2 O O < < < H 6 < 4 4 B 4 Z N D D N ",
"N 4 N _ 4.+.-.-.@.6.<.I A V N A V Y.%X].[.].J.].U.R././.G.N L *.K.6.:.>.>.:.S.K.2.G.I J G H 3.3.<.*.3.U P 6 4 V 4 S N D N Z N Z ",
"Z Z V 4.6.I @.0.-.0.:.I A V Z A Z R.R.Y.].%X*XqX*X7X8X3XP.4 G G &.&.,.S.K.,.:.:.,.G.I J r r U H U 3.7.U U V A L { | N Z Z D Z R ",
"Z Z Z | 6.O.@.-.-.0.-.L A V Z R E E.=X%X%X].U.1X&X=X2X!.T.6 G 6 2 G I :.:.=.) L -.6._ J 6 < 6 2 <.L.L.q.L.L.W.P.XX!.Z E Z R R ~ ",
"Z Z A [ G.2.0.-.@.-.*.) L Z N R R ` Q R A A ) `.^./.*XR.!.V J J :.,.,.K.K.K.K.G.G.6._ L G G 1.3.!.zXzXzXvX6XvX6X8X!.A Z R R Z R ",
"R ~ Z / ) G J y @.-.*._ / Z Z R ! E./.2XqX*X@X<X$X&X7X3XY.4 V I -.,.,.;.;.,.>.:.-.6.I J r 6 K J *.XX!.6XXXT.R.!.4XT.Z Z R Q R Q ",
"R R N Z V < 2 @ O.-.-.) / R Z Q Q E././.*X#XI.U.I.@X#X%XS.6 6 U 6.9.D.6.S.,.:.:.:.6._ G 6 < 2 < _ T.G.3X+XT.P.D.!.P.A E R ~ Q Q ",
"Q Q Q H.H.I -.w.@.-.<.) W A R Q Q /.>XE./.:X$X:X$X:X@X=XD.V r U 2.-.-.-.2.6.6.K.6.6.I G G K h.q.L &.V D.[.Y.A.L F.E.E R Z Q Q R ",
"B.Q ! C.P.J y w y r P S W Z R R C.>X>X#XCXwX-XCX,X,X-X1XJ.G < T 6.6.I w w w w K { 5._ L 6 < w @ !.8X2X=X@X#X@X$X$X/.N Z Q ! R Z.",
"B.B.! C.6.y y : K J _ P ( Z R ! C.^.MX:X<X-X-X9X,X,X-X<XI.L G  .5.*.r 2 2 O O 6 1.H.| U G 2 w O 6.2X^.^.I.`.^.$X:XU.V Z E E Z ^ ",
"B.V.E H.L.-.2.%.@.U <._ W Z E ! C.MX7X5X;X;X9X9XmX9X,X1XU.V L P L.2.3.#.#.%.3.q.*.4.L V 6 H j.3.P.*X^.mX:X-X:X:X:X^.B Z Q ! ~ ^ ",
"V.V.Z 4.J J w 2 +.#.4.( ( N L ` C.BX{.5XqX;X-X9XmXmXMXwXY.4 V N < < 2 2 @ @.q.<.<.G.*./ 6 < @ 2 U.>X^.mX,X,X<X:X1XU.V Z ! C.W ^ ",
"} | ( 5.J K @.w +.<.5.L L N S L L {.@.|.OX}.J.mXmXmX,X7X{.4 V V L 6 r G w O.-.-.:.G.&.) G 6 r 2 `.,X9X9X-X-X<X<X1X/.Z S ` C.D ^ ",
"S F H 3.T 3.l.-.+.*.H.L L 4 6 6 r w X e.@.w J.mXmXmX`.5X|.6 A I W.I G 2.-.J O.w.>.,.) V 6 H h.0.;X9X9X9X0X0X7XI.^.R.N B ` ` D  .",
"< O < + O @ +.6 _ *.6.L G 6 2 < w X X : X @ J.NXNXMX=.}.m.@ 6 _ L.1.+.-.9.O.&.S.8.K.:.I V < < < }.9X9X9X;XwX}.L F.R.N N ' ` D ~.",
"O   O     @ 3.G *.<.6.I I 2 O     X o   : @ F.MXMX-X: w u.  O +.{ H.2.@.8.8.8.8.=.,.) G G G K J }.0X0X}.@.8.8.V ) T.C N ` / V Q.",
"i ..> y.y.2 $.7.G.*.6.G 6 w X y.$.s.b.;   2 ;.<X1X`.@.e.X u.%.H g.U q.2.=.8.=.8.>.-.J G 6 G h.2.}.wXwX}.w.n < 4 ) L.< S ] ] r #.",
"> d.i f.yX3 O 2 J ,.G.J y @   c.Q.. iXk $ O ] &X&X'.%.jXo N.yX  O O J J J {.{.XX>.@.G y 2 < < < OXOX{.{.m.%.O < L P.< H ) ) J W.",
"> > l m +   O 2 *.I -.O.r @   o r...$ $ . < ] D.Y.,.X o M M.M.X O   < 2 y +XOX6XJ O @ t t Y 1.#.e.@.@.l.e.X   < G W.6 V &.&.J  X",
"> jXm iXgX= 2 < O.-.w.w @ @ X gXtXuXlXg + < N G.G.K s.lXN.lXM.X O O O @ 2 |.|.L.+.O O O O t K #.w X y m.M.f.= O G W.< N F.8.J 2.",
"d.b.o - v.r.O O -.OX|.8.DXAX. v.i . iXp.+ O V { G @ z.f.  p.r.        2 2 -.2 O O   + .   O 2 2 @ O 2 u   . . + L P.6 V A.A.I J ",
"u.p.b.b.x...O O |.vXzXm.ZXbX  jXM.f.p.z.O < 6 < O   eXp.x.y.p .       @ O +.2 O   o     +   O O @ O O # o $ . O J P.V A E.I.-.+.",
"o bXx.iXkX  O O J @.0.y w : o N.N.M.bXe O < O t u   p.bXeXpXpXO o   @   @ 2.t 3 p.uXz a.x.u O O O O <     . $ 7 G F.Z / R.*X!._ ",
"> j   $ x.p.. X   @   w : o , f o X s.s.@         # i   O + rXO     u @ 2 3.t   + a.. z iXu @   O       .   o 7 6 V 4 / 2X8X4XG ",
"o b.v.N.iXl   o   X   o     $ f.r.m.yXe.X   X       m b.z.uXc.  @   c.K O @ +   i b.v.eXM.e         o . . $     2 t 6 3.W.vXbXr ",
"M jXjXeXM.i             . . - p.z.c.c.u   X   X o . f.N.N.gXM.X @ X Q.$.+     = y.iXv.v.z.>   X         . . o hXY K O r  XaXs.r.",
"  ,     u :               . i z.p a O         .   . j i   o >   O O #.3 O       . i #           O O     8   z.FXAXO K l.s. XrXr.",
"o c.M.z.y.e   +   O O   O   3 y.p 3 O     X     o . ..a.y.eXl.@ 2 2 2 O O O O O t.y.a # @     O O O O   3   7 bXQ.O oXbXc.Q.jXd.",
", eXeXd.a X       O O O O O 3 T p 3 O +           . i.v.c. X%.  O O O Y t       y.t.a       O O O < < O < O O 1 7 O l.g.e z.iX  ",
"l f.& .   # @ O O O O O 6 t t t O O O         o   = z.y.#     O w K 6 $.t # 3   =   +     +   O V < 2 < 2 T T T O j.Q.Q.aX@ . & ",
"f a.M & .       O < O O 2 7 2 # * + O               i p u e @   w 3   e     =   =   o     .     < < 2 7 < < O O <  .Q.<   # p.. ",
"$ ; $ $ $ . * + + 9 9 + O O O   . . .   .       . . - =       X     a AXhX# o . $   . . . + . 3 < 7 F O . + O 1 1 l.xXg.3 . u.u.",
"d d s % * g q g 0 q q + + . * - g d d g d g s d h h d % % $ . . 8   y.SXnX  m - - $ & j   . l 8 ..+ + q . . * + O g.rXg.9 + p.c.",
"d d s v X.g * q * * * * . * q g v x x v h h x b s x h v x $ .       = p.8 . . . m j x.- (.iX. - . * $ . $ . . . O 1 g.H 7 O   Y ",
"n.v h v v g X.X.......q . $ $ . . . .   . . . . . . . .       o           N.AXkX. z b.. nXnX. b.l k.a.c a.X...i.i.+ C g.~.e + Q.",
"c n.X.i.X.X.k.k.X.k.X.0 g j j d z j f , .   .   . ; & j i o # u # # . e i uXSXkX  - l 0 a.i.......i.X.z X.X...k.T T < (.Q.  ..# ",
"i j l F q 5 F 1 9 0 0 q q j k j h x v x f d s d d x h v X.g z i.Y Y < #   @ 8   l yXO 9 + O t.o.F 1 q 0 * q 0 0 9 < g. .O y.$.= ",
"rXg...5 < F Y F 5 5 1 .   . . . % % s h s k v x x v h h g g a.(.g.h.O h.6 Q.rXrXl.j.1 j.T h.(.T o.< 5 Y 9 q F 7 C 7 7 Q.Y $.gXd.",
"g.6 1.{ V P N V S 5 4 1 +     . . . . .     . . $ $ $ $ +   . O aXW.< h.G  XaXoXH T C  .~.).7 N  .( S B C 7 4 < < 7 <  Xj.u r.= ",
"P 4 W.~.} _ N | B < < O       . .   . o     o .   .   . + O e #.Q.6 G 6 ~.oXO 7.P 6 T T h.h.4 B !.!.{ 4 P F 1 6 < V < 2 3 a l , "
};
