/* XPM */
static char *_9164fac7e1b41fbc827c4ab840f19160AvosYGZCXKLyeYu[] = {
/* columns rows colors chars-per-pixel */
"64 64 81 1 ",
"  c #4B4B49",
". c #525250",
"X c #545452",
"o c #555553",
"O c #585856",
"+ c #595957",
"@ c #5A5A58",
"# c #5B5B59",
"$ c #5C5C5A",
"% c #5D5D5B",
"& c #5F5F5D",
"* c #60605E",
"= c #61615F",
"- c #626260",
"; c #636361",
": c #646462",
"> c #656563",
", c #666664",
"< c #676765",
"1 c #686866",
"2 c #696967",
"3 c #6A6A68",
"4 c #6B6B69",
"5 c #6C6C6A",
"6 c #6D6D6B",
"7 c #6E6E6C",
"8 c #6F6F6D",
"9 c #70706E",
"0 c #71716F",
"q c #727270",
"w c #737371",
"e c #747472",
"r c #757573",
"t c #767674",
"y c #777775",
"u c #787876",
"i c #797977",
"p c #7A7A78",
"a c #7B7B79",
"s c #7C7C7A",
"d c #7D7D7B",
"f c #7E7E7C",
"g c #7F7F7D",
"h c #80807E",
"j c #81817F",
"k c #828280",
"l c #838381",
"z c #848482",
"x c #858583",
"c c #868684",
"v c #878785",
"b c #888886",
"n c #898987",
"m c #8A8A88",
"M c #8B8B89",
"N c #8C8C8A",
"B c #8D8D8B",
"V c #8E8E8C",
"C c #8F8F8D",
"Z c #90908E",
"A c #91918F",
"S c #929290",
"D c #939391",
"F c #949492",
"G c #959593",
"H c #969694",
"J c #979795",
"K c #989896",
"L c #999997",
"P c #9A9A98",
"I c #9B9B99",
"U c #9C9C9A",
"Y c #9D9D9B",
"T c #9E9E9C",
"R c #9F9F9D",
"E c #A0A09E",
"W c #A1A19F",
"Q c #A2A2A0",
"! c #A3A3A1",
"~ c #A4A4A2",
"^ c #ABABA9",
/* pixels */
"uwr6BJ7gp0m*gbcwyj:6p7pVj7jjxbycj1ywyd0lyjxwlmZp0p7jxj6xxuxugybg",
"6Lpum63u3uScc<updcrud<7pygjwjxx<cZ<jclSy<rcyy100pb077dybdwur0wgy",
"ljpmw<d*7xlmx<prdBlVZdlmdmbblO7*wccg*dygcyr7jup7umpr7lyylddlylcx",
"l*lj1dd0ymgw0dbyup7jcpgd%6rZx0dmVlgd6P7pldj0uuBSycglug61uy7g3ddg",
":dc7pu:G7db71xcmBd:ru67;ugyjuTy6mBOxpgp77uj:7rcgxgpbyy30y06d6dgg",
"wZryl7ujr<jylBgmBd3upwp3w67dpQgcuu<g333p0yp<pjdOxupZpr36prygrjbc",
"JpwcruJ<p7prBlcjw66jr<u7jyglp60cmwxyyB0c0gmrw6pugudmrpr67<707wlp",
"Swbj0clg7mZ3w:LmgxZTg<y07ry*g1Sg*cmj3;cVbr3#60xmmxyr#uxpy3uwpyml",
"drw3BcldBBlux d7j<wpcgBg3p6yglmw;0rucjruydpml1pggdxyu3pp1u3rpux6",
"dcblcwyBlBryppx3c7pgjylu6ydju7udrjxmbuwxplpyxjb6lgd6gglr3jlgyrgu",
"7jgjjxlZ3j0j3luyj0ggg0ggjwujjy3u3jcllgxJ7ludyyg7jww6dugypdluujr7",
"wmuw0bywdlgPxVpZ76ppg7jbbwddxc0y0mx70pddjVpYllgbr:0wu;0xgwgwpmr7",
"rxudwp7pl61dxlw736urj7gbudSxdcdxdg0<rprrly;dcdu607u7r1pl7yBguxpx",
"xy1lBgwmggd0xjx1ywpwj60guxBggmxdb0*rbdrcdpg3ByB:ygj:ycB7ugmlxBmc",
"Slrump60rlr7u7x6yr06l07ullugxlg6Zxwucy6y7pd7g0l1dpp:rug6djudcmbw",
"<xZ3w7prGb*lSjGg0611bpygdxpcj:707bl6yld0Bb*SbSdyu<70ro*y3jupr6p3",
"y0bp7r<dVxSpydZrdld<y6rcJdglBrgbcYxVwPu<xgSb3pm6Jm0*0plV6r1pp7;b",
"jj7cx3dp%lBdxw0xxgw;juyucVy7rTB7d7%jrp6d;pjgxgryrxxgpyrc073uumxj",
"gZuulxV00u3rxl6puggwgwyuwlgj7jgccu6rryrg0yypgrrluccpr7yVy36l0mBp",
"lgBwuLlyjwdG77ygwucpj7ypx13uVwpxxlxrddxdV0jV07xjwgjlxgwud30m030j",
"c6pjxj7mr6dPywrudrducdp3r7u7lpju3:urbyxlc3jJuwjpujdpldypyd0lp7:b",
"pu1lx7gl6w:0ll0ldwjdjyd0*jcl1upg:7lwjuly3w0rduumxcp67wuByc0ycZuc",
"wl6wgjV0:ld:70gYuymlu6jupp0xdjwrumGppgxy7uw:7ulVygpdcjwrdlrgjVjj",
"c306jLdyxpbywdJdc0gudul0rpBjj3ydxypxlwjLpwcx<gSybg13cVu0cwuG06wd",
"GujdllZy7clmj6xjpj*wcwdSyy1wx7:cSju1lBZwwB6Lx3d0g3w0gVdpwc70u<0y",
"p730ZVj0lpb07luxx;1rummrpJGlcZl7pybxyjZrprB07xpxd7g76g7jyclcbguy",
"6g07ggwclrlupx7yg6md7mj7mpplggBG0l<<bLxVg6T3ycrlmdJjdBwxggbd30dB",
"yVjj707mdp0mb1rrrBb67r*7cjmg1ug*pTj0ry:Zblllx<rux3cujG<3u3cl0pyu",
"gdgVrdy6pcugr:jjGWjpBclxd<pcylLxbpBY*1u7mG6cr;gxj1u0pB6wc1ggdBjw",
"u7db3wgy6jLr3cglpu6y13Sp~7wmy6xJl<0c0dbpwxpj7cxcbgg77pgmprgy1rjm",
"pdcp01gc6uSjdSjx0pBg*0Bg16ddyZQmyld7u;7J<0mjgZjlgjw073yrOuccp1wx",
"mVbuSjwrlp3bZuVJpYT0pSrrjyupuBTTu17wbydjpwjjmwlbxVyBZgd%gm7yBxmc",
"myu0pxZrjjlw6BS0upluBcl6gw*wyjWbY7ju<gxu7uV03uSud6rmmw<rgwprg3ru",
"g6xBmwljVxjy<3gxjpp6pgxyy7%wddx1lxgpml0bxcSxw3gbpydcxpry01rcGl7*",
"BypybBBrjlgyr70gydmlSmcr0mbmg6plld6jGGl<mZlgrwrbpjjppjjpxduZJZgy",
"pjmypgBj6gr1gcprrrp1yrdwlBu0prwgymd7;0JmlV3<0muuggpyydjgr01p0gjS",
"rwxbSrujrg6;ylglddl0pucgccuwlcpl<LdwbwuJlc<:yVuupy0wrrdlggucyy3y",
"rruyVgurduygd66b<0g0y0y6ulSBBBdmgu0G^Bwymjrlly0by070rwulJbjZVbr3",
"%jB7w6ugp7dZc0wlxxc0wymBu1gdgcw3B3cZ36lcl7dmcwuc7yy0wgjdy::7lxlj",
";7uuB01wj6wgdcZlulVpjpbxu0Gx:6wl;yBw:u6<7#wuxjBy3gj0rbmpjrpwp1yp",
"7gdl70Z7pjxlbBcggy3cZdjrw:bgcprj0SuywrLjulxxgdpdml0%uryuywrbdbp7",
"6gwgmjj1xlbg06:7xppduwrcd:17lcjxmj#pc1jdxVBdulBbly&uVGplr:yp6BlS",
"yBr0p3rS3mT0;blug6jjxl;10ddmy16uwx161*p1jZZdwdu6cg0cju6mBpJc:d*y",
"wgglg17Gw1bclbgYcw00pl767y:cjur6xbpml1jB:rjppglplpcdp&7cw6dl0bgm",
"b7yldudlw<uggp1y0pruy0dypd;juypugp7ygdlupyuggpxGrwxlVlcjGV0d3rgr",
"G0pd6dcx:cx11lg.:pwjxdx1yjdbu30g7Bb0rSGubuuxg16g<67y*7w7jc;xppVr",
"rwBxlmuydbrgd7blxj06pbx7r:wgSZjdy7ujp36c<:0gd07gSmcB<0gV0d0Zlgbr",
"lju<bWywxWpg7;SmpdVgpcw0j7bpxgdVcggdjjyrwwyyrujbB:0pj0xlrugmwdlx",
"xxluppmSrpc13bu3m3bxy;bd0djgygc63Spr:jJbud:Oyxy37d76gbpp6300;y0x",
"63ugZxp<lr77gmp660l300cpwuxBxcbrgyxmbw7pjp16llrywgu<plBGjdlbcJpp",
"rwlrxyjdurrcl7pB:yu*wwudu6wpw0rw<0SgdVuywdcbj6wZ0px<0:70jpdjpb70",
"0rmpx0jjly:bVuxcBljxxudbB0gcpw7ymgdgwp6gjuuxmlpp0yb3j6dwpdxcrg6d",
"w676gup7pd7lmdmcB0ycwwgpu<xSml30Bmp103xprugddlgwxuj&y0xw<wxBpl1w",
"yy0rwdpd6xmxyrcmr:6y#gb36Ogjgcwd6bb.uyQ3*dSx<3gjbup:06u&r7rpub67",
"6ljGpcuxgdjrpbjylgul0SZjmrVuwSbSbuwwj0urdrup0ulydyxjgxBuGcjjuVul",
"bc&r%cgVuuVdwuwlcj<dyj3dGgLw<muddp:u%Lrbc7wjrrjgggld:rxdjlbl0u:r",
"763xw31bwjdBg;ydjrrddlcuylcu7Ggpx:6cd<:1lm61rVgjS07ZPlyxcduxg00p",
"Lbrrdcw#wgx0<0ujgwyjlmVld3ucx0wGJr6yudd0dB0x0x6lx03pxu7rlgglxgjx",
"70jxjrlJudZu7xjBVjjxpggwd330Bdbpujbj30xbdjwcuy*ycxjgggdg6wyyyjjg",
"y1upb0jBy0bVBxumpryprupr%xc006Vu6rjgggjpZgjdGjgrlgpur0rg<ry37dgw",
"lgg3lxx<<70cx0yuywyp0wuwjj*pddp36rplxddjlyu3gjx0gr0yr17dyllyyjjw",
"7gbdpgmm6lwyuycrjdljw0ywpluZw33jyjxjpyjP0dwp*ggup73yu0wdjxjpruy7",
"gdulgjpjdbxgjcbu36ugwylxxgdypbu0lx01xVxdlbgYrZxj3<<3ypr0xdpdy067",
"wcdw:ly<g7xBBc1r63yu33yygrVrggdl:xg3pbu6x77Bdj7&rppubPZuVjjbcyrj"
};
