/* XPM */
static char *fb1f7415b96d44e2a0f22b6b142b03absBPnWbUTWvs36BM1[] = {
/* columns rows colors chars-per-pixel */
"28 28 122 2 ",
"   c #2A324D",
".  c #2D3652",
"X  c #2F3955",
"o  c #313A56",
"O  c #343D5B",
"+  c #37405E",
"@  c #38415F",
"#  c #374161",
"$  c #3A4464",
"%  c #3C4669",
"&  c #3F496C",
"*  c #414B6E",
"=  c #494C6F",
"-  c #424D72",
";  c #445175",
":  c #4C5276",
">  c #45527A",
",  c #4A5479",
"<  c #4E597F",
"1  c #50597F",
"2  c #3C4583",
"3  c #3E4887",
"4  c #3F4A8A",
"5  c #3C648C",
"6  c #414C8D",
"7  c #445F87",
"8  c #4E5B83",
"9  c #545C84",
"0  c #555F88",
"q  c #445193",
"w  c #475699",
"e  c #48579C",
"r  c #49599E",
"t  c #4B6086",
"y  c #44658D",
"u  c #4C658E",
"i  c #54628B",
"p  c #4C6690",
"a  c #476890",
"s  c #4F6890",
"d  c #556691",
"f  c #586791",
"g  c #526992",
"h  c #5A6B93",
"j  c #52629A",
"k  c #616590",
"l  c #6C6691",
"z  c #656893",
"x  c #6B6996",
"c  c #746794",
"v  c #766C97",
"b  c #7A6996",
"n  c #4C5EA3",
"m  c #4D60A7",
"M  c #4F62A9",
"N  c #5165AE",
"B  c #5E71AF",
"V  c #5267B0",
"C  c #556AB5",
"Z  c #576DBA",
"A  c #586FBB",
"S  c #5770BB",
"D  c #5A71BB",
"F  c #6E6EAB",
"G  c #6475B7",
"H  c #6975B0",
"J  c #6276BB",
"K  c #6C7BBD",
"L  c #797DB6",
"P  c #737BBB",
"I  c #7C7FBC",
"U  c #677BC0",
"Y  c #6A7EC1",
"T  c #727FC0",
"R  c #806996",
"E  c #8C6997",
"W  c #826C9B",
"Q  c #8E6B9B",
"!  c #9C669E",
"~  c #976A9B",
"^  c #9A6F9F",
"/  c #996FA1",
"(  c #817DBB",
")  c #887ABA",
"_  c #9775B5",
"`  c #9B7DB3",
"'  c #937DB8",
"]  c #A56EA4",
"[  c #AA6FA5",
"{  c #AB6DAB",
"}  c #A370A7",
"|  c #AE70A3",
" . c #AA71A8",
".. c #B374AD",
"X. c #B974AE",
"o. c #B87BB0",
"O. c #C377AD",
"+. c #C17FB5",
"@. c #7A81BE",
"#. c #7383C3",
"$. c #7684C3",
"%. c #7886C4",
"&. c #8E80B6",
"*. c #8484BC",
"=. c #8586BE",
"-. c #8F89BE",
";. c #9684B7",
":. c #9D8BBC",
">. c #AF84B9",
",. c #A88DBB",
"<. c #AA8FBE",
"1. c #BE84B9",
"2. c #BB8FBE",
"3. c #C384B6",
"4. c #C788BA",
"5. c #8486C1",
"6. c #8688C3",
"7. c #8C89C1",
"8. c #938BC2",
"9. c #908DC2",
"0. c #968CC0",
"q. c #A28EC0",
/* pixels */
"2 2 2 2 2 2 2 2 2 2 2 2 2 2 2 2 2 2 2 2 2 2 3 6 6 q q w ",
"2 2 2 2 2 2 & 2 2 2 2 2 2 2 2 3 6 6 2 6 6 6 6 e r n m M ",
"2 2 2 2 2 2 2 2 2 2 3 3 4 q q w n e e e e e n N N C C Z ",
"6 6 6 6 6 6 6 4 4 q w n n n m n N N N N N N C Z A Z Z Z ",
"n n r m m m n n n M V Z Z C C C C A C Z C Z A A D S S D ",
"V V V C C Z C Z Z Z Z A Z Z Z Z A A A A A D A A Z D A A ",
"Z Z Z Z D D D D A A S S S S Z Z A S S S Z S A D D A Z A ",
"C C Z Z D D D D D D D D S S S A D S S A S S D A D J G K ",
"A A A D J D D D D D D D D A A A D D D D B D A D B D P I ",
"J U D D J J U J U U D D J J J U J J G G P K G J D D G F ",
"D U U U U U P Y U J J K K I K U K G B j j H P ( ) _ } ! ",
"U U Y Y Y Y 5.=.T T T T T T T I @.=.&.` ] ] ....| ~ R z ",
"$.$.#.$.#.%.8.0.7.5.7.0.-.P L ' >.3.1.o...} E l s y u i ",
"6.6.9.8.7.@.L @.8.q.2.4.+.X.{ { ^ E c k u y y u i 9 1 < ",
":.,.0.q.<.` { X.X.O.O.[ Q b z f u u u i i i 1 1 : ; ; * ",
";.1.3.+.O...[ ^ W x d y p p d 0 i i 1 1 : = % & % @ @ @ ",
".. ./ W x g 5 5 7 8 8 9 9 8 , , > ; - & $ $ & & @ @ $ * ",
"v h a y t 9 : = = * & & & * * ; & % $ % $ % % $ % % * $ ",
"s 8 : = * # O # $ $ # # # # $ # $ % * % @ $ $ - * & & O ",
", $ # O O $ % $ @ O O # $ $ % & & & @ @ @ @ $ - & * $ o ",
"# $ $ & = $ O o o O % * * * * % + + + @ $ % & - & - & o ",
"O o o % % O O O $ - * % O X X o + + + $ $ % & - & $ O O ",
"o o X X % & - & % # o . . X o o o + @ $ % & & % # & O . ",
"o o o X # % # O . . . . o X X O o + @ % * & * % & - #   ",
"# # $ & O . . . . X . . . o # # + @ % * & & & ; ; % X . ",
"% % # X . X X X X X o X . . X # $ % % % & & 6 & X   . . ",
"& % X . X X X O o o o # O X X o # $ $ & & & # .   . .   ",
"O X X O # X O % $ o # # & # O # % & ; > $       . . X X "
};
